<mxfile host="65bd71144e">
    <diagram id="unppv9JTSSsChFlD74EL" name="Page-1">
        <mxGraphModel dx="1728" dy="646" grid="1" gridSize="10" guides="1" tooltips="1" connect="1" arrows="1" fold="1" page="1" pageScale="1" pageWidth="850" pageHeight="1100" math="0" shadow="0">
            <root>
                <mxCell id="0"/>
                <mxCell id="1" parent="0"/>
                <mxCell id="3" value="" style="whiteSpace=wrap;html=1;" vertex="1" parent="1">
                    <mxGeometry x="365" y="60" width="120" height="60" as="geometry"/>
                </mxCell>
                <mxCell id="4" value="" style="whiteSpace=wrap;html=1;" vertex="1" parent="1">
                    <mxGeometry x="100" y="220" width="120" height="60" as="geometry"/>
                </mxCell>
                <mxCell id="5" value="" style="whiteSpace=wrap;html=1;" vertex="1" parent="1">
                    <mxGeometry x="365" y="420" width="120" height="60" as="geometry"/>
                </mxCell>
                <mxCell id="6" value="" style="whiteSpace=wrap;html=1;" vertex="1" parent="1">
                    <mxGeometry x="630" y="220" width="120" height="60" as="geometry"/>
                </mxCell>
                <mxCell id="7" value="&lt;b style=&quot;font-size: 23px;&quot;&gt;MAIN&lt;/b&gt;" style="text;strokeColor=none;align=center;fillColor=none;html=1;verticalAlign=middle;whiteSpace=wrap;rounded=0;fontSize=23;" vertex="1" parent="1">
                    <mxGeometry x="365" y="60" width="120" height="60" as="geometry"/>
                </mxCell>
                <mxCell id="9" value="&lt;b&gt;CATTLE&lt;/b&gt;" style="text;strokeColor=none;align=center;fillColor=none;html=1;verticalAlign=middle;whiteSpace=wrap;rounded=0;fontSize=23;" vertex="1" parent="1">
                    <mxGeometry x="100" y="220" width="120" height="60" as="geometry"/>
                </mxCell>
                <mxCell id="10" value="JOURNEY" style="text;strokeColor=none;align=center;fillColor=none;html=1;verticalAlign=middle;whiteSpace=wrap;rounded=0;fontSize=23;fontStyle=1" vertex="1" parent="1">
                    <mxGeometry x="630" y="220" width="120" height="60" as="geometry"/>
                </mxCell>
                <mxCell id="11" value="&lt;b&gt;DROVERS&lt;/b&gt;" style="text;strokeColor=none;align=center;fillColor=none;html=1;verticalAlign=middle;whiteSpace=wrap;rounded=0;fontSize=23;" vertex="1" parent="1">
                    <mxGeometry x="365" y="420" width="120" height="60" as="geometry"/>
                </mxCell>
                <mxCell id="15" value="" style="edgeStyle=none;orthogonalLoop=1;jettySize=auto;html=1;fontSize=23;exitX=0.5;exitY=1;exitDx=0;exitDy=0;strokeWidth=3;" edge="1" parent="1" source="7" target="11">
                    <mxGeometry width="100" relative="1" as="geometry">
                        <mxPoint x="380" y="160" as="sourcePoint"/>
                        <mxPoint x="480" y="160" as="targetPoint"/>
                        <Array as="points"/>
                    </mxGeometry>
                </mxCell>
                <mxCell id="16" value="" style="edgeStyle=none;orthogonalLoop=1;jettySize=auto;html=1;fontSize=23;entryX=1;entryY=0;entryDx=0;entryDy=0;exitX=0;exitY=1;exitDx=0;exitDy=0;strokeWidth=3;" edge="1" parent="1" source="7" target="9">
                    <mxGeometry width="100" relative="1" as="geometry">
                        <mxPoint x="220" y="140" as="sourcePoint"/>
                        <mxPoint x="320" y="140" as="targetPoint"/>
                        <Array as="points"/>
                    </mxGeometry>
                </mxCell>
                <mxCell id="17" value="" style="edgeStyle=none;orthogonalLoop=1;jettySize=auto;html=1;strokeWidth=3;fontSize=23;exitX=1;exitY=1;exitDx=0;exitDy=0;entryX=0;entryY=0;entryDx=0;entryDy=0;" edge="1" parent="1" source="7" target="10">
                    <mxGeometry width="100" relative="1" as="geometry">
                        <mxPoint x="530" y="170" as="sourcePoint"/>
                        <mxPoint x="630" y="170" as="targetPoint"/>
                        <Array as="points"/>
                    </mxGeometry>
                </mxCell>
            </root>
        </mxGraphModel>
    </diagram>
</mxfile>